<svg xmlns="http://www.w3.org/2000/svg" width="100" height="100"><defs><linearGradient id="a" gradientUnits="userSpaceOnUse" x1="2.763" y1="-.313" x2="94.027" y2="95.408"><stop offset="0" stop-color="#56CCF2"/><stop offset="1" stop-color="#2F80ED"/></linearGradient></defs><path d="M63.697 1.417c.657-1.036 1.832-1.725 3.066-1.73 1.729-.004 3.375.967 4.376 2.35.943 1.322 1.234 2.993 1.236 4.589-.015 2.244-.532 4.449-1.148 6.596-1.539 5.067-3.63 9.946-5.192 15.007-1.72 5.743-2.545 12.143-.234 17.845 1.208-3.372 2.403-6.751 3.607-10.127.342-.892.792-1.906 1.748-2.272 1.331-.474 2.688.915 2.649 2.201-.364 1.873-1.07 3.658-1.626 5.48-4.503 13.536-9.546 26.885-14.402 40.299 6.458-5.905 12.936-11.788 19.402-17.682 1.861-1.694 3.879-3.54 4.449-6.1.569-2.513-.489-5.007-1.688-7.165-1.385-2.575-3.153-5.024-3.803-7.922-.327-1.501-.228-3.228.784-4.458.73-.926 2.059-1.404 3.18-.952 1.107.423 1.775 1.486 2.298 2.49a32.327 32.327 0 0 1 3.23 11.299c1.2-2.421 2.414-4.832 3.616-7.251.726-1.425 1.367-2.954 2.545-4.08.711-.702 1.747-1.144 2.75-.916 1.258.278 2.141 1.422 2.479 2.61.383 1.262-.022 2.576-.429 3.775-1.212 3.353-3.116 6.387-4.951 9.424-2.558 4.02-5.275 7.943-8.241 11.675 1.695-1.132 3.48-2.323 5.556-2.56 1.964-.263 4.135.887 4.785 2.804.435 1.305-.269 2.782-1.451 3.419-1.734.967-3.786.954-5.713 1.04-6.993.192-13.808 3.635-18.147 9.116-3.424 4.371-5.173 9.802-8.648 14.137-2.192 2.642-5.289 5.959-8.696 5.226-4.537-.975-4.537-8.066-5.668-11.581-.583-1.772-1.677-3.391-3.195-4.496-1.327-.98-2.916-1.542-4.522-1.85-3.687-.708-7.49-.334-11.168-1.094-1.841-.375-3.654-1.113-5.06-2.386-1.34-1.176-2.266-2.75-2.908-4.397-1.386-3.588-1.668-7.481-2.9-11.114-1.783-5.23-5.311-9.854-9.906-12.925-.969-.654-2.022-1.292-2.649-2.312-.51-.797-.465-1.93.203-2.625 1.126-1.226 3.161-1.327 4.462-.313 2.666 1.891 3.051 5.565 5.536 7.621.004-3.394-.013-6.785-.019-10.177.008-.98-.101-2.035.389-2.926.446-.844 1.68-1.073 2.397-.44.969.812 1.264 2.137 1.402 3.336.482 4.675.948 9.352 1.432 14.03 2.436-2.188 3.555-5.739 2.767-8.924-.239-1.017-.626-2.063-.407-3.118.179-.885 1.118-1.508 2.003-1.35.995.135 1.705.988 2.078 1.864.594 1.452.596 3.069.476 4.611-.353 3.512-1.839 6.755-2.864 10.097-.999 2.95-1.686 6.228-.685 9.275.892 2.849 3.153 5.101 5.806 6.378 3.275 1.609 6.964 2.109 10.573 2.251-2.194-3.84-4.58-7.903-4.539-12.471.043-4.599 2.967-8.473 3.757-12.912 1.346-7.364-1.977-15.369-8.163-19.594-2.748-1.888-6.047-2.728-8.87-4.479-2.554-1.563-4.848-4.345-4.447-7.513 1.94-.751 4.106-.271 5.857.737 3.422 1.826 5.599 5.288 9.038 7.086a7.391 7.391 0 0 0 3.969.901c.745-1.786 0-3.786-1.202-5.177-2.261-2.724-6.077-3.385-8.441-5.989-1.185-1.359-1.846-3.301-1.348-5.078.405-1.404 1.858-2.36 3.305-2.254 2.143.133 3.988 1.475 5.453 2.952 4.847 4.845 7.636 11.435 8.73 18.132 1.292 7.899.288 15.957-1.303 23.735-.297 1.585-.853 3.21-.442 4.828.177.749.717 1.522 1.547 1.589 1.141.073 2.084-.704 2.915-1.385 2.599-2.123 4.665-4.981 5.517-8.254.666-2.386.685-4.884.638-7.341.013-1.229-.078-2.586.657-3.65.525-.822 1.505-1.468 2.513-1.229.79.15 1.35.835 1.591 1.569.388 1.209.329 2.514.095 3.747-.743 3.403-1.415 6.85-2.761 10.081-.95 2.319-2.233 4.524-3.971 6.341-1.916 2.031-4.283 3.659-5.827 6.026-1.053 1.617-1.734 3.626-1.277 5.558.334 1.541 1.507 2.799 2.922 3.441 2.061.941 4.563.893 6.572-.166 1.594-.862 2.727-2.352 3.629-3.883 1.589-2.754 2.552-5.812 3.351-8.874 1.229-4.944 1.953-10.013 2.237-15.1.325-5.433-.661-11.051-3.4-15.797-1.456-2.541-3.515-4.705-5.92-6.361-2.166-1.611-4.548-3.006-6.305-5.093-1.643-1.934-2.782-4.544-2.184-7.111 1.124-.706 2.543-.829 3.788-.387 2.349.799 4.189 2.685 5.375 4.819 1.611 2.515 2.955 5.508 5.793 6.874-2.309-4.542-4.69-9.045-7.027-13.571-.76-1.529-1.509-3.2-1.311-4.949.144-1.333 1.382-2.426 2.719-2.42 1.187.004 2.3.672 3.007 1.602.807 1.047 1.193 2.337 1.557 3.59 1.862 6.482 3.723 12.961 5.592 19.441 2.349-4.475 3.342-9.66 2.674-14.682-.292-2.662-1.074-5.233-1.694-7.83-.422-1.699-.295-3.605.674-5.101z" fill="url(#a)"/></svg>